<?xml version="1.0" encoding="UTF-8"?>
<svg width="292px" height="44px" viewBox="0 0 292 44" version="1.1" xmlns="http://www.w3.org/2000/svg" xmlns:xlink="http://www.w3.org/1999/xlink">
    <defs>
        <filter x="-1.3%" y="-2.4%" width="102.7%" height="109.5%" filterUnits="objectBoundingBox" id="filter-1">
            <feOffset dx="0" dy="2" in="SourceAlpha" result="shadowOffsetOuter1"></feOffset>
            <feColorMatrix values="0 0 0 0 1   0 0 0 0 1   0 0 0 0 1  0 0 0 1 0" type="matrix" in="shadowOffsetOuter1" result="shadowMatrixOuter1"></feColorMatrix>
            <feMerge>
                <feMergeNode in="shadowMatrixOuter1"></feMergeNode>
                <feMergeNode in="SourceGraphic"></feMergeNode>
            </feMerge>
        </filter>
        <path d="M28.89,3.75 C31.8300147,6.2500125 33.3,10.0899741 33.3,15.27 C33.3,20.4500259 31.7900151,24.239988 28.77,26.64 C25.7499849,29.040012 21.140031,30.24 14.94,30.24 L9.36,30.24 L9.36,41.94 L0,41.94 L0,0 L14.82,0 C21.2600322,0 25.9499853,1.2499875 28.89,3.75 Z M22.02,20.25 C23.1400056,18.9899937 23.7,17.1500121 23.7,14.73 C23.7,12.3099879 22.9700073,10.5900051 21.51,9.57 C20.0499927,8.5499949 17.7800154,8.04 14.7,8.04 L9.36,8.04 L9.36,22.14 L15.66,22.14 C18.7800156,22.14 20.8999944,21.5100063 22.02,20.25 Z M64.2,0 L75.48,0 L62.4,20.22 L76.56,41.94 L65.16,41.94 L56.22,28.14 L47.34,41.94 L36.06,41.94 L50.16,20.46 L37.02,0 L48.24,0 L56.22,12.42 L64.2,0 Z" id="path-2"></path>
        <filter x="-1.3%" y="-2.4%" width="102.6%" height="109.5%" filterUnits="objectBoundingBox" id="filter-3">
            <feOffset dx="0" dy="2" in="SourceAlpha" result="shadowOffsetOuter1"></feOffset>
            <feColorMatrix values="0 0 0 0 1   0 0 0 0 1   0 0 0 0 1  0 0 0 1 0" type="matrix" in="shadowOffsetOuter1"></feColorMatrix>
        </filter>
        <path d="M196.02,13.92 C196.02,20.6400336 193.360027,24.9799902 188.04,26.94 L198.66,41.94 L187.14,41.94 L177.84,28.56 L171.36,28.56 L171.36,41.94 L162,41.94 L162,0 L177.9,0 C184.420033,0 189.069986,1.099989 191.85,3.3 C194.630014,5.500011 196.02,9.0399756 196.02,13.92 Z M184.74,18.9 C185.900006,17.8599948 186.48,16.2100113 186.48,13.95 C186.48,11.6899887 185.880006,10.1400042 184.68,9.3 C183.479994,8.4599958 181.380015,8.04 178.38,8.04 L171.36,8.04 L171.36,20.46 L178.2,20.46 C181.400016,20.46 183.579994,19.9400052 184.74,18.9 Z M235.86,0 L235.86,8.34 L214.98,8.34 L214.98,16.98 L233.76,16.98 L233.76,24.96 L214.98,24.96 L214.98,33.66 L236.52,33.66 L236.52,41.94 L205.62,41.94 L205.62,0 L235.86,0 Z M282.42,15.54 L271.08,38.46 L265.5,38.46 L254.22,15.54 L254.22,41.94 L244.86,41.94 L244.86,0 L257.52,0 L268.32,23.04 L279.18,0 L291.78,0 L291.78,41.94 L282.42,41.94 L282.42,15.54 Z" id="path-4"></path>
        <filter x="-0.8%" y="-2.4%" width="101.5%" height="109.5%" filterUnits="objectBoundingBox" id="filter-5">
            <feOffset dx="0" dy="2" in="SourceAlpha" result="shadowOffsetOuter1"></feOffset>
            <feColorMatrix values="0 0 0 0 1   0 0 0 0 1   0 0 0 0 1  0 0 0 1 0" type="matrix" in="shadowOffsetOuter1"></feColorMatrix>
        </filter>
    </defs>
    <g id="Page-1" stroke="none" stroke-width="1" fill="none" fill-rule="evenodd">
        <g id="Group">
            <g id="iconmonstr-retweet-1" filter="url(#filter-1)" transform="translate(81.000000, 0.000000)" fill-rule="nonzero">
                <path d="M28.2546987,8.16448589 L22,0 L63.1393712,0 C65.9007949,-5.07265313e-16 68.1393712,2.23857625 68.1393712,5 L68.1393712,27 L75,27 L62.8097867,42 L50.6195733,27 L57.5577234,27 L57.4534268,8.16448589 L28.2546987,8.16448589 Z" id="Shape" fill="#FF623B"></path>
                <path d="M6.25469865,8.16448589 L1.13686838e-13,0 L41.1393712,0 C43.9007949,-5.07265313e-16 46.1393712,2.23857625 46.1393712,5 L46.1393712,27 L53,27 L40.8097867,42 L28.6195733,27 L35.5577234,27 L35.4534268,8.16448589 L6.25469865,8.16448589 Z" id="Shape-Copy" fill="#000000" transform="translate(26.500000, 21.000000) scale(-1, -1) translate(-26.500000, -21.000000) "></path>
            </g>
            <g id="Combined-Shape">
                <use fill="black" fill-opacity="1" filter="url(#filter-3)" xlink:href="#path-2"></use>
                <use fill="#FF623B" fill-rule="evenodd" xlink:href="#path-2"></use>
            </g>
            <g id="PX-REM">
                <use fill="black" fill-opacity="1" filter="url(#filter-5)" xlink:href="#path-4"></use>
                <use fill="#000000" fill-rule="evenodd" xlink:href="#path-4"></use>
            </g>
        </g>
    </g>
</svg>